<svg xmlns="http://www.w3.org/2000/svg" width="153.83" height="29.544" viewBox="0 0 153.83 29.544">
  <g id="Group_9138" data-name="Group 9138" transform="translate(-1684.462 1351.5)">
    <path id="Subtraction_6" data-name="Subtraction 6" d="M120.734,28.544h0v-2.18a6.52,6.52,0,0,0,2.284-.5,4.372,4.372,0,0,0,1.631-1.226,5.319,5.319,0,0,0,.979-1.951,9.936,9.936,0,0,0,.326-2.675V15.581a7.068,7.068,0,0,1-2.531,3.2,6.478,6.478,0,0,1-1.918.92,8.11,8.11,0,0,1-2.274.306,8.721,8.721,0,0,1-3.08-.5,5.468,5.468,0,0,1-2.2-1.5,6.5,6.5,0,0,1-1.32-2.5,12.514,12.514,0,0,1-.44-3.5V1.542h2.531V11.548a10.454,10.454,0,0,0,.3,2.645,5.364,5.364,0,0,0,.9,1.923,3.654,3.654,0,0,0,1.626,1.172,6.962,6.962,0,0,0,2.467.39,5.907,5.907,0,0,0,2.521-.514,4.955,4.955,0,0,0,1.868-1.542,7.525,7.525,0,0,0,1.157-2.244,8.665,8.665,0,0,0,.386-2.62V1.542h2.531V20.168A10.685,10.685,0,0,1,127.852,24a6.748,6.748,0,0,1-1.9,2.729,7.13,7.13,0,0,1-2.3,1.3A10.008,10.008,0,0,1,120.734,28.544Zm-52.518,0H65.686V19.575h-.039V1.542h2.57V5.5a6.928,6.928,0,0,1,1.137-1.839,7.112,7.112,0,0,1,1.671-1.4,8.274,8.274,0,0,1,4.39-1.186,9.086,9.086,0,0,1,3.53.667,8.226,8.226,0,0,1,2.837,2,8.9,8.9,0,0,1,1.869,3.05,11.154,11.154,0,0,1,.623,3.811,10.71,10.71,0,0,1-.633,3.752,8.916,8.916,0,0,1-1.9,3.03,8.371,8.371,0,0,1-2.877,2,9.287,9.287,0,0,1-3.569.667,7.928,7.928,0,0,1-4.271-1.186A7.267,7.267,0,0,1,68.217,15.7V28.544ZM74.979,3.4a7.255,7.255,0,0,0-2.743.5,6.492,6.492,0,0,0-2.219,1.513,6.687,6.687,0,0,0-1.468,2.3,8.123,8.123,0,0,0-.489,2.877,7.845,7.845,0,0,0,.489,2.818A6.73,6.73,0,0,0,70.016,15.7a6.492,6.492,0,0,0,2.219,1.512,7.255,7.255,0,0,0,2.743.5,6.887,6.887,0,0,0,2.669-.5A6.284,6.284,0,0,0,79.8,15.7a6.749,6.749,0,0,0,1.423-2.284A8.061,8.061,0,0,0,81.7,10.6a8.244,8.244,0,0,0-.475-2.852A6.822,6.822,0,0,0,79.8,5.438,6.287,6.287,0,0,0,77.649,3.91,6.831,6.831,0,0,0,74.979,3.4ZM49.552,28.078h0V23.648a6.013,6.013,0,0,0,1.854-.288,3.536,3.536,0,0,0,1.409-.868,3.665,3.665,0,0,0,.845-1.446,6.6,6.6,0,0,0,.282-2.024V16.491a5.237,5.237,0,0,1-2.392,2.234,7.858,7.858,0,0,1-3.579.85,9.791,9.791,0,0,1-3.727-.677,7.907,7.907,0,0,1-2.877-2.032,9.048,9.048,0,0,1-1.839-3.109,11.849,11.849,0,0,1-.613-3.91,11.544,11.544,0,0,1,.633-3.9,9.4,9.4,0,0,1,1.9-3.159A8.273,8.273,0,0,1,44.361.7,9.44,9.44,0,0,1,48.048,0a7.276,7.276,0,0,1,3.579.89,5.4,5.4,0,0,1,2.313,2.353V.514h6.051V18.27a11.577,11.577,0,0,1-.919,4.795,8.047,8.047,0,0,1-2.758,3.312,8.669,8.669,0,0,1-2.907,1.275A16.153,16.153,0,0,1,49.552,28.078ZM49.63,4.943a4.592,4.592,0,0,0-1.824.351,4.072,4.072,0,0,0-1.438,1.053,4.745,4.745,0,0,0-.934,1.6,6.023,6.023,0,0,0-.311,1.982,6.024,6.024,0,0,0,.311,1.982,4.745,4.745,0,0,0,.934,1.6,4.07,4.07,0,0,0,1.438,1.053,4.6,4.6,0,0,0,1.824.351,4.786,4.786,0,0,0,1.883-.356,4.03,4.03,0,0,0,1.458-1.068,4.863,4.863,0,0,0,.934-1.6,5.918,5.918,0,0,0,.312-1.958,5.918,5.918,0,0,0-.312-1.958,4.863,4.863,0,0,0-.934-1.6A4.03,4.03,0,0,0,51.514,5.3,4.786,4.786,0,0,0,49.63,4.943ZM23.214,20.09a9.413,9.413,0,0,1-3.717-.7,7.757,7.757,0,0,1-2.847-2.106,9.518,9.518,0,0,1-1.809-3.213,12.736,12.736,0,0,1-.6-4.024A12.136,12.136,0,0,1,14.86,6.07a9.676,9.676,0,0,1,1.868-3.223A8.12,8.12,0,0,1,19.615.712,9.194,9.194,0,0,1,23.293,0a7.374,7.374,0,0,1,3.6.87,5.743,5.743,0,0,1,2.373,2.373V.514h6.011V19.575H29.264V16.886A5.935,5.935,0,0,1,26.832,19.2,7.5,7.5,0,0,1,23.214,20.09Zm1.74-15.028a4.778,4.778,0,0,0-1.854.346,4.044,4.044,0,0,0-1.448,1.038,4.622,4.622,0,0,0-.934,1.592,6.135,6.135,0,0,0-.311,2.007,6.178,6.178,0,0,0,.311,2.012,4.716,4.716,0,0,0,.934,1.606A4.044,4.044,0,0,0,23.1,14.716a4.716,4.716,0,0,0,1.854.351,4.932,4.932,0,0,0,1.928-.356,3.76,3.76,0,0,0,1.433-1.068,4.9,4.9,0,0,0,.89-1.612,6.35,6.35,0,0,0,.3-1.987,5.394,5.394,0,0,0-1.186-3.559,3.757,3.757,0,0,0-1.433-1.068A4.932,4.932,0,0,0,24.954,5.062Zm71.5,14.988a9.88,9.88,0,0,1-3.722-.667,7.824,7.824,0,0,1-2.862-2,8.977,8.977,0,0,1-1.824-3.03,11.1,11.1,0,0,1-.608-3.752,11.025,11.025,0,0,1,.618-3.762,9.138,9.138,0,0,1,1.854-3.06A8.006,8.006,0,0,1,92.79,1.745a9.7,9.7,0,0,1,3.7-.677A7.776,7.776,0,0,1,100.8,2.274,6.923,6.923,0,0,1,103.492,5.5V1.542h2.571V19.575h-2.571V15.7a6.9,6.9,0,0,1-2.749,3.144A7.928,7.928,0,0,1,96.453,20.05ZM96.769,3.4a7.14,7.14,0,0,0-2.749.509,6.049,6.049,0,0,0-2.155,1.528,6.852,6.852,0,0,0-1.394,2.309,8.4,8.4,0,0,0-.465,2.852,8.215,8.215,0,0,0,.465,2.818A6.78,6.78,0,0,0,91.866,15.7a6.047,6.047,0,0,0,2.155,1.512,7.2,7.2,0,0,0,2.749.5,7.465,7.465,0,0,0,2.837-.514,5.985,5.985,0,0,0,2.185-1.542,7.017,7.017,0,0,0,1.394-2.294,8.01,8.01,0,0,0,.465-2.768,8.2,8.2,0,0,0-.465-2.8,7.093,7.093,0,0,0-1.394-2.318A5.988,5.988,0,0,0,99.607,3.92,7.4,7.4,0,0,0,96.769,3.4ZM6.051,19.575H0V.514H6.051V4.508A5.338,5.338,0,0,1,11.31.2a6.693,6.693,0,0,1,1.582.158V5.971a16.891,16.891,0,0,0-1.819-.118,5.64,5.64,0,0,0-2.2.4A3.918,3.918,0,0,0,7.306,7.445a5.408,5.408,0,0,0-.942,1.99,11.079,11.079,0,0,0-.314,2.786v7.355Z" transform="translate(1709.307 -1351)" fill="#381c5f" stroke="rgba(0,0,0,0)" stroke-width="1"/>
    <path id="Path_82990" data-name="Path 82990" d="M10.58,0A10.95,10.95,0,0,0,6.414,20.917c5.62,2.276,11.415.119,13.684-4.166L15.53,13.515c-.643,2.414-5.493,4.418-8.623,1.2-3.3-3.4-.578-9.193,3.481-9.193h5.9v4.759l2.9-2.617,2.617-2.54V0H10.58Z" transform="translate(1684.981 -1351)" fill="#f22483" stroke="rgba(0,0,0,0)" stroke-width="1"/>
  </g>
</svg>
