<svg width="700" height="700" viewBox="0 0 700 700" fill="none" xmlns="http://www.w3.org/2000/svg">
<path d="M611.45 155.31L118.27 76.408V118.217L89.3052 115.901V155.323H69.9932V483.603H629.993V155.323H611.446L611.45 155.31ZM137.58 99.048L396.36 140.45L137.58 119.751V99.048ZM108.615 136.802L118.271 137.575V137.583L183.509 142.798L339.949 155.31H108.609L108.615 136.802ZM610.685 464.272H89.3052V174.612H610.685V464.272Z" fill="#381C5F"/>
<path d="M132.76 251.86C151.393 251.86 166.553 236.7 166.553 218.067C166.553 199.434 151.393 184.274 132.76 184.274C114.127 184.274 98.9673 199.434 98.9673 218.067C98.9673 236.704 114.127 251.86 132.76 251.86ZM132.76 203.587C140.745 203.587 147.244 210.083 147.244 218.071C147.244 226.055 140.748 232.555 132.76 232.555C124.776 232.551 118.28 226.063 118.28 218.067C118.28 210.075 124.776 203.587 132.76 203.587V203.587Z" fill="#381C5F"/>
<path d="M533.45 218.07C533.45 236.703 548.61 251.863 567.243 251.863C585.876 251.863 601.036 236.703 601.036 218.07C601.036 199.437 585.876 184.277 567.243 184.277C548.606 184.277 533.45 199.445 533.45 218.07ZM581.723 218.07C581.723 226.054 575.227 232.554 567.239 232.554C559.255 232.554 552.755 226.058 552.755 218.07C552.755 210.085 559.251 203.586 567.239 203.586C575.227 203.59 581.723 210.086 581.723 218.07Z" fill="#381C5F"/>
<path d="M132.76 387.04C114.127 387.04 98.9673 402.2 98.9673 420.833C98.9673 439.466 114.127 454.626 132.76 454.626C151.393 454.626 166.553 439.466 166.553 420.833C166.553 402.196 151.397 387.04 132.76 387.04ZM132.76 435.313C124.776 435.313 118.276 428.817 118.276 420.829C118.276 412.845 124.772 406.345 132.76 406.345C140.745 406.345 147.244 412.841 147.244 420.829C147.244 428.817 140.744 435.313 132.76 435.313Z" fill="#381C5F"/>
<path d="M567.24 387.04C548.607 387.04 533.447 402.2 533.447 420.833C533.447 439.466 548.607 454.626 567.24 454.626C585.873 454.626 601.033 439.466 601.033 420.833C601.033 402.196 585.873 387.04 567.24 387.04ZM567.24 435.313C559.256 435.313 552.756 428.817 552.756 420.829C552.756 412.845 559.252 406.345 567.24 406.345C575.225 406.345 581.724 412.841 581.724 420.829C581.72 428.817 575.224 435.313 567.24 435.313Z" fill="#381C5F"/>
<path d="M374.6 452.28C375.788 452.057 376.987 451.886 378.163 451.632C381.718 450.87 385.241 449.96 388.718 448.909C390.319 448.425 391.886 447.866 393.46 447.327C395.507 446.624 397.546 445.889 399.562 445.089C401.3 444.405 403.026 443.698 404.726 442.944C406.636 442.085 408.519 441.147 410.402 440.202C413.027 438.878 415.597 437.487 418.124 436.003C418.511 435.78 418.898 435.55 419.284 435.319H524.924L523.987 424.815C523.893 423.499 523.796 422.186 523.796 420.835C523.796 396.882 543.288 377.386 567.245 377.386C568.577 377.386 569.881 377.472 571.182 377.589L581.725 378.554V260.354L571.182 261.318C569.877 261.436 568.565 261.522 567.245 261.522C543.292 261.522 523.796 242.03 523.796 218.073C523.796 216.729 523.893 215.408 523.999 214.096L524.936 203.592H419.266C398.981 191.416 375.336 184.283 350 184.283C324.664 184.283 301.02 191.42 280.734 203.592H175.034L175.999 214.127C176.116 215.439 176.202 216.74 176.202 218.072C176.202 242.025 156.71 261.521 132.753 261.521C131.421 261.521 130.109 261.435 128.804 261.318L118.273 260.353V378.553L128.808 377.588C130.113 377.471 131.425 377.385 132.757 377.385C156.71 377.385 176.206 396.877 176.206 420.834C176.206 422.166 176.12 423.479 176.003 424.784L175.038 435.319H280.498C282.033 436.244 283.576 437.143 285.143 438.002C285.627 438.272 286.127 438.514 286.619 438.776C289.756 440.447 292.943 441.983 296.186 443.389C296.928 443.709 297.662 444.037 298.404 444.346C302.084 445.873 305.811 447.26 309.615 448.459C309.713 448.487 309.807 448.526 309.905 448.557C313.834 449.772 317.83 450.787 321.866 451.635C322.811 451.838 323.776 451.99 324.733 452.166C327.85 452.756 330.991 453.236 334.155 453.604C335.303 453.74 336.444 453.885 337.6 453.99C341.702 454.365 345.827 454.619 349.987 454.619C354.061 454.619 358.108 454.369 362.143 454.002C363.397 453.885 364.643 453.74 365.889 453.596C368.807 453.264 371.705 452.811 374.592 452.28L374.6 452.28ZM323.264 432.081C322.655 431.937 322.05 431.761 321.44 431.608C318.292 430.827 315.194 429.882 312.124 428.827C310.706 428.335 309.296 427.823 307.893 427.284C305.682 426.433 303.53 425.468 301.378 424.483C300.327 423.991 299.284 423.487 298.241 422.968L323.846 410.359C329.389 407.628 332.834 402.085 332.834 395.906V379.926L327.002 377.414C314.623 372.086 306.572 361.871 302.381 346.18L301.002 341.036L295.913 339.454C292.862 338.508 290.815 335.786 290.815 332.684V324.274C290.815 321.184 292.823 319.012 294.698 318.016L299.237 315.602L299.768 310.493C300.569 302.731 302.307 295.575 304.905 289.231C306.014 286.516 306.959 284.488 307.725 282.848C310.291 277.324 311.444 274.051 311.182 268.75C320.866 273.73 332.268 275.848 344.53 274.871C345.796 274.765 347.096 274.715 348.413 274.715C379.116 274.715 394.101 285.781 397.018 310.582L397.608 315.621L402.096 317.996C403.987 319 406.006 321.172 406.006 324.273V332.683C406.006 335.781 403.959 338.504 400.908 339.453L395.819 341.035L394.44 346.179C390.248 361.87 382.198 372.093 369.819 377.413L363.987 379.925V395.972C363.987 402.046 367.346 407.538 372.772 410.327L399.584 424.026C399.229 424.198 398.881 424.374 398.514 424.538C395.174 426.081 391.775 427.471 388.307 428.678C387.893 428.823 387.486 428.987 387.072 429.131C366.556 436.002 344.213 436.928 323.263 432.081L323.264 432.081ZM444.494 222.901H504.666C507.022 253.671 531.643 278.292 562.412 280.647V358.256C531.642 360.612 507.021 385.233 504.666 416.002H444.494C444.639 415.858 444.764 415.701 444.908 415.557C446.561 413.924 448.084 412.178 449.651 410.459C451.158 408.818 452.721 407.232 454.131 405.525C454.67 404.869 455.147 404.154 455.674 403.486C471.51 383.693 481.541 359.814 484.322 334.17C484.361 333.85 484.428 333.541 484.467 333.225C484.928 328.694 485.17 324.096 485.17 319.452C485.17 314.808 484.928 310.214 484.474 305.663C484.447 305.343 484.369 305.034 484.33 304.718C481.549 279.085 471.51 255.198 455.682 235.402C455.151 234.734 454.678 234.023 454.139 233.363C452.721 231.663 451.166 230.07 449.658 228.429C448.096 226.722 446.569 224.964 444.916 223.331C444.764 223.21 444.639 223.046 444.494 222.902V222.901ZM411.908 221.694C419.885 226.753 427.056 232.682 433.428 239.268C434.296 240.167 435.108 241.112 435.948 242.038C438.022 244.327 439.983 246.702 441.866 249.135C442.842 250.409 443.827 251.686 444.753 252.999C446.51 255.491 448.124 258.077 449.678 260.694C450.362 261.842 451.116 262.944 451.764 264.12C453.745 267.749 455.51 271.506 457.085 275.339C457.682 276.788 458.167 278.284 458.706 279.753C459.69 282.456 460.608 285.179 461.401 287.96C461.854 289.554 462.26 291.155 462.635 292.768C463.331 295.702 463.889 298.679 464.354 301.671C464.577 303.089 464.839 304.499 465.01 305.94C465.522 310.397 465.862 314.897 465.862 319.452C465.862 324.011 465.522 328.507 465.003 332.96C464.839 334.398 464.569 335.8 464.346 337.23C463.882 340.234 463.323 343.206 462.628 346.132C462.241 347.745 461.835 349.359 461.393 350.941C460.612 353.722 459.694 356.444 458.698 359.148C458.159 360.624 457.674 362.12 457.077 363.562C455.495 367.394 453.737 371.151 451.756 374.781C451.108 375.96 450.358 377.058 449.671 378.206C448.116 380.824 446.503 383.41 444.745 385.902C443.819 387.214 442.835 388.488 441.858 389.765C439.983 392.199 438.014 394.574 435.94 396.863C435.1 397.789 434.288 398.738 433.421 399.632C428.854 404.355 423.745 408.613 418.339 412.57C416.698 411.375 415.026 410.203 413.202 409.289L383.272 394.004V392.246C396.78 384.656 406.327 372.394 411.745 355.684C420.03 351.079 425.3 342.387 425.3 332.664V324.254C425.3 316.238 421.651 308.797 415.519 303.824C411.483 280.738 396.16 255.375 348.398 255.375C346.534 255.375 344.71 255.441 342.952 255.586C335.886 256.145 325.554 255.559 316.651 249.563C313.319 247.324 310.819 245.16 309.237 243.141C306.05 239.094 300.741 237.695 295.979 239.656C291.249 241.605 288.468 246.348 289.057 251.426C289.425 254.602 289.956 258.301 290.757 262.348C292.311 270.149 292.311 270.149 290.198 274.676C289.339 276.532 288.268 278.829 287.01 281.887C284.241 288.657 282.249 296.059 281.1 303.949C275.065 308.922 271.483 316.316 271.483 324.254V332.664C271.483 342.387 276.756 351.086 285.038 355.684C290.456 372.399 300.003 384.661 313.511 392.246V393.899L282.48 409.192C281.496 409.731 280.57 410.465 279.621 411.121C274.968 407.559 270.546 403.766 266.539 399.621C265.671 398.723 264.859 397.778 264.019 396.852C261.945 394.563 259.984 392.188 258.101 389.754C257.125 388.481 256.14 387.203 255.214 385.891C253.457 383.399 251.843 380.813 250.289 378.196C249.605 377.047 248.851 375.946 248.203 374.77C246.222 371.141 244.457 367.383 242.882 363.551C242.285 362.102 241.8 360.605 241.261 359.137C240.277 356.434 239.359 353.711 238.566 350.93C238.113 349.336 237.707 347.734 237.332 346.121C236.636 343.187 236.078 340.211 235.613 337.219C235.39 335.801 235.128 334.391 234.957 332.949C234.476 328.512 234.136 324.024 234.136 319.453C234.136 314.887 234.476 310.399 234.996 305.945C235.16 304.508 235.429 303.106 235.652 301.676C236.117 298.672 236.675 295.699 237.371 292.773C237.757 291.16 238.164 289.547 238.605 287.965C239.386 285.184 240.304 282.461 241.3 279.758C241.84 278.281 242.324 276.785 242.922 275.344C244.504 271.512 246.261 267.754 248.242 264.125C248.89 262.945 249.64 261.848 250.328 260.699C251.882 258.082 253.496 255.496 255.254 253.004C256.179 251.691 257.164 250.418 258.14 249.14C260.015 246.707 261.984 244.332 264.058 242.043C264.898 241.117 265.711 240.168 266.578 239.273C272.949 232.687 280.125 226.761 288.098 221.699C306.028 210.297 327.231 203.597 350.008 203.597C372.785 203.601 393.981 210.293 411.91 221.695L411.908 221.694ZM195.328 416.004C192.973 385.242 168.351 360.609 137.582 358.254V280.645C168.352 278.29 192.973 253.668 195.328 222.899H255.5C255.356 223.044 255.231 223.2 255.086 223.344C253.434 224.977 251.911 226.723 250.344 228.442C248.836 230.083 247.274 231.669 245.864 233.376C245.325 234.032 244.848 234.747 244.321 235.415C228.485 255.208 218.454 279.087 215.673 304.731C215.634 305.051 215.567 305.36 215.528 305.676C215.067 310.211 214.825 314.817 214.825 319.449C214.825 324.082 215.067 328.687 215.52 333.238C215.548 333.558 215.626 333.867 215.665 334.183C218.446 359.816 228.485 383.703 244.313 403.499C244.844 404.167 245.317 404.878 245.856 405.538C247.274 407.238 248.829 408.831 250.336 410.472C251.899 412.179 253.426 413.937 255.079 415.57C255.223 415.714 255.348 415.871 255.493 416.015L195.329 416.011L195.328 416.004Z" fill="#381C5F"/>
</svg>
