<svg width="700" height="700" viewBox="0 0 700 700" fill="none" xmlns="http://www.w3.org/2000/svg">
<g clip-path="url(#clip0_21_495)">
<path d="M378.96 -8.54062e-05C369.1 -8.54062e-05 359.398 0.734295 349.851 2.02721C339.886 0.695215 330.413 -8.54062e-05 321.031 -8.54062e-05C273.886 -8.54062e-05 229.801 15.1799 192.331 41.4219C192.323 41.4297 192.303 41.4414 192.292 41.4493C173.292 54.7653 156.007 70.9453 140.87 89.4333C140.413 89.8512 140.077 90.3317 139.71 90.8278C125.382 108.574 113.062 128.445 103.108 149.937C102.838 150.421 102.615 150.902 102.432 151.433C95.5763 166.456 89.8498 182.242 85.4478 198.695C85.0142 199.621 84.8189 200.636 84.6939 201.699C78.3111 226.558 74.8267 252.82 74.8267 280C74.8267 322.512 83.2369 362.812 98.2137 398.94C98.3465 399.346 98.4832 399.721 98.6746 400.1C107.635 421.475 118.921 441.358 132.14 459.342C132.495 459.834 132.788 460.358 133.229 460.772C146.639 478.768 162.022 494.795 178.975 508.467C179.468 509.017 180.065 509.424 180.675 509.846C220.523 541.42 268.898 559.998 321.035 559.998C330.421 559.998 339.89 559.302 349.855 557.97C359.402 559.263 369.109 559.998 378.964 559.998C514.724 559.998 625.174 434.388 625.174 279.998C625.174 125.608 514.724 -0.00244141 378.964 -0.00244141L378.96 -8.54062e-05ZM276.8 25.3439C273.73 26.9455 270.698 28.6056 267.694 30.3439C265.87 31.3947 264.026 32.4298 262.23 33.5314C259.585 35.1642 256.995 36.883 254.409 38.6212H235.811C249.928 32.0157 264.663 26.8052 280.022 23.5702C278.932 24.1171 277.889 24.7733 276.8 25.3436L276.8 25.3439ZM179.679 444.134H145.046C136.53 432.103 128.972 419.177 122.405 405.513H158.979C160.494 408.939 162.057 412.329 163.69 415.669C164.385 417.099 165.119 418.497 165.834 419.907C167.823 423.809 169.889 427.642 172.033 431.415C172.815 432.806 173.576 434.204 174.381 435.575C176.084 438.486 177.873 441.318 179.678 444.134L179.679 444.134ZM117.964 164.134H154.913C153.214 168.364 151.612 172.642 150.104 176.966C149.69 178.153 149.272 179.333 148.87 180.521C147.468 184.673 146.175 188.86 144.948 193.099H107.233C110.303 183.146 113.897 173.49 117.963 164.134L117.964 164.134ZM94.1318 279.994C94.1318 273.486 94.4795 267.076 94.8857 260.685H133.382C133.374 260.841 133.374 260.993 133.362 261.15C133.003 267.384 132.753 273.65 132.753 279.994C132.753 283.228 132.87 286.435 132.964 289.65H94.5107C94.4053 286.423 94.1318 283.248 94.1318 279.994L94.1318 279.994ZM134.066 308.959C134.433 313.025 134.906 317.06 135.429 321.076C135.468 321.365 135.488 321.666 135.527 321.963C136.238 327.334 137.109 332.654 138.085 337.924H100.003C98.1206 328.443 96.6323 318.799 95.6792 308.959L134.066 308.959ZM140.054 212.408C139.804 213.556 139.589 214.717 139.351 215.865C139.089 217.131 138.831 218.384 138.578 219.65C137.398 225.713 136.347 231.826 135.527 238.025C135.488 238.314 135.468 238.615 135.429 238.912C135.324 239.732 135.253 240.552 135.148 241.373H96.8278C98.1012 231.545 99.7145 221.85 101.926 212.408L140.054 212.408ZM142.363 357.238C142.663 358.425 142.941 359.625 143.261 360.812C143.367 361.226 143.464 361.652 143.581 362.066C145.175 367.957 146.96 373.75 148.882 379.464C149.277 380.652 149.703 381.831 150.117 383.019C150.484 384.081 150.839 385.144 151.218 386.195L114.003 386.191C110.343 376.816 107.195 367.14 104.511 357.226H142.363L142.363 357.238ZM174.379 124.398C173.578 125.769 172.816 127.167 172.031 128.558C169.887 132.332 167.82 136.175 165.832 140.066C165.117 141.476 164.383 142.875 163.687 144.304C163.601 144.48 163.515 144.644 163.437 144.82H127.242C134.551 131.043 142.969 118.152 152.308 106.199H186.128C184.949 107.89 183.761 109.558 182.624 111.277C179.777 115.554 177.015 119.929 174.378 124.398L174.379 124.398ZM202.57 57.9209H229.246C226.863 60.0068 224.48 62.1123 222.152 64.2959C220.191 66.1514 218.289 68.0693 216.379 69.9834C214.488 71.8857 212.613 73.8076 210.777 75.7764C208.98 77.6983 207.175 79.6006 205.429 81.5694C203.894 83.3077 202.425 85.1006 200.929 86.8897H169.046C179.417 76.1047 190.608 66.3817 202.569 57.9207L202.57 57.9209ZM160.019 463.441H193.156C194.246 464.871 195.328 466.308 196.449 467.71C199.363 471.371 202.359 474.941 205.437 478.417C207.183 480.398 208.98 482.3 210.785 484.21C212.628 486.171 214.492 488.101 216.386 490.003C217.168 490.796 217.922 491.636 218.714 492.406H189.671C179.069 483.726 169.155 474.031 160.019 463.441L160.019 463.441ZM280.019 536.425C257.878 531.761 236.957 523.206 217.55 511.718H240.905C242.112 512.644 243.346 513.523 244.565 514.433C246.62 515.96 248.659 517.495 250.752 518.952C254.51 521.569 258.331 524.077 262.213 526.464C264.018 527.573 265.854 528.597 267.678 529.651C270.682 531.39 273.713 533.062 276.784 534.651C277.885 535.218 278.928 535.874 280.018 536.425L280.019 536.425ZM378.957 540.683C371.289 540.683 363.711 540.23 356.23 539.37L352.398 538.839C351.925 538.773 351.452 538.694 350.98 538.636C347.62 538.163 344.288 537.605 340.976 536.964C340.734 536.917 340.503 536.866 340.261 536.819C337.026 536.183 333.819 535.476 330.644 534.687C330.218 534.581 329.804 534.464 329.39 534.347C326.405 533.585 323.441 532.773 320.507 531.874C319.714 531.632 318.944 531.355 318.159 531.101C315.601 530.288 313.05 529.46 310.542 528.542C308.757 527.894 306.999 527.171 305.241 526.476C303.733 525.886 302.218 525.327 300.733 524.698C248.827 502.721 205.784 459.546 179.603 404.358C179.373 403.854 179.15 403.354 178.92 402.851C177.51 399.839 176.139 396.788 174.834 393.698C174.322 392.491 173.85 391.265 173.357 390.05C172.373 387.636 171.408 385.214 170.478 382.761C169.9 381.206 169.35 379.632 168.787 378.058C168.025 375.905 167.271 373.741 166.549 371.55C165.971 369.784 165.42 368.007 164.877 366.222C164.248 364.175 163.642 362.12 163.053 360.042C162.521 358.159 162.021 356.269 161.525 354.374C160.994 352.347 160.494 350.3 160.01 348.241C159.545 346.3 159.104 344.351 158.686 342.382C158.24 340.327 157.834 338.249 157.439 336.175C157.064 334.206 156.686 332.226 156.35 330.245C155.982 328.101 155.666 325.94 155.346 323.765C155.057 321.823 154.768 319.894 154.514 317.933C154.213 315.616 153.982 313.269 153.74 310.933C153.549 309.108 153.334 307.292 153.182 305.46C152.951 302.776 152.795 300.073 152.643 297.358C152.557 295.831 152.432 294.327 152.361 292.8C152.17 288.577 152.065 284.3 152.065 279.995C152.065 275.69 152.17 271.413 152.346 267.155C152.412 265.627 152.537 264.112 152.627 262.596C152.783 259.893 152.936 257.178 153.166 254.495C153.322 252.659 153.533 250.846 153.725 249.022C153.967 246.686 154.209 244.338 154.498 242.022C154.748 240.073 155.049 238.131 155.33 236.19C155.65 234.026 155.979 231.866 156.334 229.709C156.674 227.721 157.049 225.752 157.424 223.78C157.818 221.705 158.236 219.627 158.67 217.573C159.096 215.612 159.537 213.662 159.994 211.713C160.479 209.659 160.99 207.619 161.51 205.58C162.002 203.678 162.506 201.795 163.037 199.912C163.615 197.838 164.232 195.78 164.861 193.733C165.428 191.979 165.967 190.19 166.545 188.436C167.26 186.252 168.014 184.092 168.783 181.928C169.342 180.354 169.885 178.78 170.475 177.225C171.393 174.772 172.365 172.35 173.353 169.936C173.846 168.721 174.318 167.494 174.83 166.287C176.135 163.198 177.506 160.155 178.916 157.135C179.146 156.631 179.361 156.12 179.6 155.627C205.784 100.428 248.838 57.2523 300.73 35.2873C302.218 34.6584 303.733 34.1076 305.237 33.51C307.003 32.8147 308.761 32.092 310.538 31.4436C313.058 30.5374 315.608 29.6975 318.155 28.885C318.937 28.635 319.718 28.3538 320.503 28.1116C323.437 27.2132 326.401 26.4046 329.386 25.6389C329.812 25.5334 330.226 25.4084 330.64 25.2991C333.816 24.5061 337.023 23.803 340.257 23.1663C340.499 23.1194 340.73 23.0686 340.972 23.0217C344.284 22.385 347.616 21.8264 350.976 21.3498C351.448 21.2834 351.921 21.2053 352.394 21.1467L356.226 20.6155C363.71 19.7639 371.292 19.3069 378.956 19.3069C504.066 19.3069 605.856 136.257 605.856 279.997C605.856 423.737 504.066 540.687 378.956 540.687L378.957 540.683Z" fill="#381C5F"/>
<path d="M378.96 81.8359C384.812 81.8359 390.73 82.1836 396.515 82.8515C396.902 82.8984 397.277 82.9179 397.644 82.9179C402.48 82.9179 406.652 79.2968 407.222 74.3827C407.839 69.0897 404.046 64.2927 398.753 63.6757C392.257 62.914 385.64 62.5273 378.784 62.5273H378.667L378.542 72.1835V62.5273C373.202 62.5273 369.089 66.8437 369.089 72.1835C369.104 77.5194 373.62 81.8358 378.96 81.8358L378.96 81.8359Z" fill="#381C5F"/>
<path d="M304.9 99.805C306.369 99.805 307.873 99.4651 309.275 98.7542C314.662 96.012 320.213 93.5589 325.775 91.4847C330.767 89.6214 333.295 84.0511 331.431 79.0587C329.568 74.0587 324.025 71.5196 319.005 73.4025C312.767 75.7384 306.54 78.4806 300.505 81.5627C295.755 83.9768 293.861 89.7971 296.286 94.5467C297.993 97.8826 301.384 99.8045 304.9 99.8045L304.9 99.805Z" fill="#381C5F"/>
<path d="M544.41 224.89C545.5 229.273 549.441 232.199 553.765 232.199C554.547 232.199 555.328 232.101 556.121 231.91C561.297 230.605 564.433 225.363 563.14 220.199C561.527 213.777 559.625 207.34 557.472 201.062C555.734 196.022 550.25 193.327 545.2 195.065C540.16 196.792 537.465 202.288 539.196 207.338C541.176 213.092 542.926 219.002 544.41 224.889L544.41 224.89Z" fill="#381C5F"/>
<path d="M530.85 147.5C527.112 141.988 523.077 136.59 518.858 131.453C515.46 127.34 509.397 126.75 505.264 130.129C501.151 133.519 500.561 139.601 503.94 143.723C507.784 148.395 511.459 153.309 514.862 158.332C516.725 161.093 519.776 162.57 522.866 162.57C524.729 162.57 526.612 162.031 528.272 160.91C532.682 157.906 533.842 151.91 530.85 147.5V147.5Z" fill="#381C5F"/>
<path d="M378.96 478.16C372.964 478.16 366.921 477.804 361.03 477.097C355.612 476.558 350.921 480.254 350.292 485.547C349.663 490.84 353.44 495.645 358.73 496.285C365.39 497.078 372.21 497.48 378.968 497.48H379.78C385.12 497.48 389.03 493.156 389.03 487.824C389.03 482.492 384.3 478.16 378.96 478.16V478.16Z" fill="#381C5F"/>
<path d="M504.68 415.37C500.848 420.081 496.762 424.639 492.524 428.925C488.778 432.718 488.817 438.831 492.621 442.577C494.496 444.432 496.946 445.366 499.399 445.366C501.891 445.366 504.379 444.409 506.274 442.499C510.926 437.776 515.426 432.757 519.657 427.573C523.028 423.432 522.399 417.346 518.258 413.987C514.114 410.627 508.051 411.245 504.68 415.37L504.68 415.37Z" fill="#381C5F"/>
<path d="M448.98 461.07C443.621 463.82 438.078 466.285 432.507 468.378C427.515 470.253 424.995 475.824 426.878 480.816C428.327 484.687 432.003 487.074 435.917 487.074C437.046 487.074 438.195 486.871 439.327 486.445C445.585 484.09 451.811 481.328 457.815 478.25C462.558 475.816 464.429 469.996 461.995 465.254C459.562 460.508 453.741 458.617 448.979 461.07L448.98 461.07Z" fill="#381C5F"/>
<path d="M474.14 91.242C468.492 87.5545 462.613 84.1639 456.644 81.164C451.874 78.7617 446.07 80.6797 443.675 85.4413C441.273 90.203 443.183 96.0153 447.944 98.4103C453.273 101.094 458.534 104.125 463.585 107.418C465.207 108.481 467.031 108.992 468.847 108.992C471.996 108.992 475.085 107.449 476.949 104.61C479.875 100.145 478.609 94.1565 474.14 91.2425L474.14 91.242Z" fill="#381C5F"/>
<path d="M560.8 270.04C555.46 270.04 551.144 274.665 551.144 280.005C551.144 285.973 550.921 291.939 550.468 297.763C550.054 303.083 554.031 307.727 559.351 308.134C559.601 308.153 559.863 308.161 560.105 308.161C565.105 308.161 569.324 304.317 569.722 299.251C570.214 292.934 570.456 286.458 570.456 279.997V279.38C570.456 274.055 566.14 270.04 560.8 270.04L560.8 270.04Z" fill="#381C5F"/>
<path d="M206.79 280C206.79 273.984 207.032 267.875 207.504 261.848C207.919 256.528 203.95 251.883 198.629 251.457C193.376 251.109 188.665 255.012 188.25 260.32C187.739 266.847 187.477 273.468 187.477 279.988V280.191C187.477 285.519 191.793 289.742 197.133 289.742C202.473 289.742 206.789 285.328 206.789 280L206.79 280Z" fill="#381C5F"/>
<path d="M551.8 345.49C546.761 343.798 541.277 346.505 539.566 351.552C537.617 357.326 535.394 363.072 532.972 368.642C530.839 373.529 533.089 379.224 537.972 381.349C539.226 381.9 540.539 382.15 541.816 382.15C545.554 382.15 549.097 379.978 550.679 376.345C553.316 370.271 555.73 364.005 557.851 357.712C559.57 352.673 556.859 347.196 551.8 345.489L551.8 345.49Z" fill="#381C5F"/>
<path d="M220.14 178.28C215.214 176.096 209.558 178.358 207.425 183.241C204.78 189.284 202.347 195.55 200.202 201.866C198.495 206.917 201.206 212.401 206.245 214.12C207.269 214.467 208.319 214.631 209.343 214.631C213.37 214.631 217.124 212.092 218.487 208.077C220.448 202.284 222.679 196.538 225.112 191.007C227.245 186.12 225.027 180.425 220.14 178.28L220.14 178.28Z" fill="#381C5F"/>
<path d="M242.85 401.34C239.858 396.918 233.869 395.758 229.44 398.742C225.026 401.734 223.87 407.73 226.854 412.152C230.639 417.742 234.655 423.148 238.807 428.218C240.717 430.546 243.479 431.753 246.28 431.753C248.432 431.753 250.596 431.038 252.393 429.562C256.526 426.171 257.116 420.101 253.745 415.968C249.975 411.362 246.307 406.437 242.85 401.339L242.85 401.34Z" fill="#381C5F"/>
<path d="M213.43 334.73C212.137 329.554 206.875 326.398 201.727 327.691C196.551 328.976 193.402 334.218 194.688 339.394C196.289 345.824 198.191 352.265 200.336 358.539C201.707 362.554 205.453 365.074 209.469 365.074C210.5 365.074 211.555 364.902 212.586 364.555C217.625 362.828 220.328 357.344 218.602 352.293C216.637 346.546 214.91 340.637 213.43 334.731V334.73Z" fill="#381C5F"/>
<path d="M251.96 117.21C247.308 121.901 242.788 126.925 238.538 132.116C235.159 136.249 235.776 142.331 239.909 145.702C241.706 147.171 243.866 147.886 246.011 147.886C248.811 147.886 251.593 146.679 253.495 144.343C257.347 139.62 261.44 135.073 265.671 130.816C269.429 127.03 269.409 120.917 265.612 117.164C261.827 113.406 255.718 113.414 251.96 117.21L251.96 117.21Z" fill="#381C5F"/>
<path d="M309.62 461.43C304.292 458.727 299.03 455.676 293.999 452.375C289.538 449.449 283.561 450.715 280.628 455.164C277.714 459.625 278.956 465.609 283.417 468.527C289.046 472.215 294.917 475.613 300.894 478.644C302.292 479.359 303.78 479.687 305.249 479.687C308.773 479.687 312.171 477.758 313.87 474.406C316.284 469.656 314.39 463.844 309.62 461.429L309.62 461.43Z" fill="#381C5F"/>
<path d="M435.89 278.12C426.14 273.292 415.171 269.276 403.304 266.186C396.448 264.389 391.534 263.108 388.57 262.315V176.038C392.952 176.905 397.124 178.19 401.035 179.862C417.004 186.397 426.379 195.745 437.137 207.639V227.741C437.137 233.534 440.875 237.272 446.668 237.272C452.461 237.268 456.207 233.534 456.207 227.741V168.179C456.207 162.386 452.461 158.648 446.676 158.648C440.891 158.648 437.145 162.394 437.145 168.179V180.874C434.934 179.147 436.422 177.155 433.262 174.905C421.106 166.198 406.094 160.143 388.567 156.889L388.575 143.092C388.575 137.299 384.836 133.561 379.043 133.561C373.25 133.561 369.512 137.307 369.512 143.092V155.537C344.785 155.951 326.239 161.631 314.352 172.435C301.868 183.798 295.536 199.13 295.536 218.017C295.536 228.029 298.442 237.017 304.169 244.724C309.731 252.216 317.696 258.56 327.853 263.572C337.037 268.119 351.037 273.014 369.525 278.142V370.486C364.505 369.627 359.869 368.4 355.697 366.818C338.599 360.291 330.978 356.244 320.795 345.181V323.525C320.795 317.732 317.049 313.994 311.264 313.994C305.483 313.986 301.725 317.725 301.725 323.517V383.079C301.725 388.872 305.463 392.611 311.256 392.611C317.049 392.611 320.787 388.865 320.787 383.079V370.372C337.463 383.743 349.713 387.009 369.517 389.731V403.297C369.517 409.09 373.263 412.829 379.048 412.829C384.833 412.829 388.579 409.083 388.579 403.297V390.871C413.548 390.571 433.099 384.606 446.731 373.133C460.981 361.16 468.204 344.824 468.204 324.617C468.204 313.988 465.298 304.699 459.572 296.972C454.005 289.472 446.041 283.136 435.892 278.117L435.89 278.12ZM369.511 256.995C366.19 256.011 362.538 254.948 358.581 253.819C352.249 252.003 345.401 249.456 338.237 246.221C331.518 243.198 325.764 238.882 321.139 233.401C316.736 228.198 314.603 222.249 314.603 215.202C314.603 203.819 319.072 194.464 328.275 186.573C337.119 179.003 350.982 174.987 369.521 174.6V256.995L369.511 256.995ZM440.515 365.745C440.351 365.882 440.147 365.975 439.983 366.1C441.382 364.96 442.733 363.784 443.979 362.557C442.901 363.659 441.741 364.71 440.515 365.745L440.515 365.745ZM433.554 358.936C423.242 367.202 408.113 371.538 388.581 371.815V283.327L403.776 287.566C411.018 289.585 418.327 292.238 425.499 295.464C432.218 298.487 437.972 302.812 442.597 308.276C446.999 313.499 449.144 319.448 449.144 326.487C449.148 339.909 444.042 350.526 433.554 358.936L433.554 358.936Z" fill="#381C5F"/>
</g>
<defs>
<clipPath id="clip0_21_495">
<rect width="700" height="700" fill="white"/>
</clipPath>
</defs>
</svg>
