<svg width="700" height="700" viewBox="0 0 700 700" fill="none" xmlns="http://www.w3.org/2000/svg">
<path d="M620.67 149.33V18.6699H79.33V149.34L69.998 149.336V497.086C69.998 521.484 89.85 541.336 114.248 541.336H585.748C610.146 541.336 629.998 521.484 629.998 497.09V149.34L620.67 149.33ZM597.334 149.33L548.986 84.8729L596.533 37.3299H602.002V149.33H597.334ZM546.002 111.99L574.002 149.33H546.002V111.99ZM210.002 37.3299H570.142L530.083 77.3889C529.774 77.6975 529.618 78.1155 529.357 78.4631C529.013 78.9202 528.665 79.3498 528.415 79.8615C528.314 80.0686 528.153 80.2248 528.06 80.4396C527.899 80.8146 527.911 81.2131 527.806 81.6076C527.646 82.1975 527.509 82.756 527.47 83.3615C527.45 83.5686 527.337 83.7756 527.337 83.9983V149.334L172.677 149.33V83.9984C172.677 83.7757 172.564 83.5687 172.556 83.3538C172.509 82.7484 172.368 82.1858 172.22 81.5999C172.118 81.2093 172.126 80.807 171.966 80.4319C171.88 80.2171 171.712 80.0569 171.611 79.8538C171.357 79.3499 171.013 78.9202 170.669 78.4632C170.407 78.1195 170.239 77.6976 169.931 77.389L129.872 37.33L210.002 37.3299ZM126.002 149.33L154.002 111.986V149.33H126.002ZM98.002 37.3299H103.471L151.014 84.8769L102.67 149.33H98.0018L98.002 37.3299ZM611.332 497.08C611.332 511.189 599.863 522.662 585.75 522.662H114.25C100.137 522.662 88.668 511.189 88.668 497.08V167.99H611.338L611.332 497.08Z" fill="#381C5F"/>
<path d="M462 224C456.84 224 452.668 228.172 452.668 233.332V289.332C452.668 345.937 406.609 392.002 349.998 392.002C293.393 392.002 247.328 345.943 247.328 289.332V233.332C247.328 228.172 243.156 224 237.996 224C232.836 224 228.664 228.172 228.664 233.332V289.332C228.664 356.234 283.098 410.662 349.994 410.662C416.896 410.662 471.324 356.228 471.324 289.332V233.332C471.324 228.172 467.152 224 461.992 224H462Z" fill="#381C5F"/>
<path d="M256.67 233.33C256.67 238.49 260.842 242.662 266.002 242.662C271.162 242.662 275.334 238.49 275.334 233.33C275.334 212.74 258.592 195.998 238.002 195.998C217.412 195.998 200.67 212.74 200.67 233.33C200.67 238.49 204.842 242.662 210.002 242.662C215.162 242.662 219.334 238.49 219.334 233.33C219.334 223.037 227.705 214.662 238.002 214.662C248.295 214.666 256.67 223.037 256.67 233.33Z" fill="#381C5F"/>
<path d="M462 196C441.41 196 424.668 212.742 424.668 233.332C424.668 238.492 428.84 242.664 434 242.664C439.16 242.664 443.332 238.492 443.332 233.332C443.332 223.039 451.703 214.664 462 214.664C472.293 214.664 480.668 223.035 480.668 233.332C480.668 238.492 484.84 242.664 490 242.664C495.16 242.664 499.332 238.492 499.332 233.332C499.332 212.742 482.59 196 462 196Z" fill="#381C5F"/>
<path d="M303.33 74.6679C303.33 79.8202 299.154 83.9999 293.998 83.9999C288.842 83.9999 284.666 79.8202 284.666 74.6679C284.666 69.5117 288.842 65.332 293.998 65.332C299.154 65.332 303.33 69.5117 303.33 74.6679Z" fill="#381C5F"/>
<path d="M331.33 46.6679C331.33 51.8202 327.154 55.9999 321.998 55.9999C316.842 55.9999 312.666 51.8202 312.666 46.6679C312.666 41.5117 316.842 37.332 321.998 37.332C327.154 37.332 331.33 41.5117 331.33 46.6679Z" fill="#381C5F"/>
<path d="M331.33 102.67C331.33 107.822 327.154 112.002 321.998 112.002C316.842 112.002 312.666 107.822 312.666 102.67C312.666 97.5137 316.842 93.334 321.998 93.334C327.154 93.334 331.33 97.5137 331.33 102.67" fill="#381C5F"/>
<path d="M359.33 74.6679C359.33 79.8202 355.154 83.9999 349.998 83.9999C344.842 83.9999 340.666 79.8202 340.666 74.6679C340.666 69.5117 344.842 65.332 349.998 65.332C355.154 65.332 359.33 69.5117 359.33 74.6679Z" fill="#381C5F"/>
<path d="M247.33 74.6679C247.33 79.8202 243.154 83.9999 237.998 83.9999C232.842 83.9999 228.666 79.8202 228.666 74.6679C228.666 69.5117 232.842 65.332 237.998 65.332C243.154 65.332 247.33 69.5117 247.33 74.6679Z" fill="#381C5F"/>
<path d="M275.33 46.6679C275.33 51.8202 271.154 55.9999 265.998 55.9999C260.842 55.9999 256.666 51.8202 256.666 46.6679C256.666 41.5117 260.842 37.332 265.998 37.332C271.154 37.332 275.33 41.5117 275.33 46.6679Z" fill="#381C5F"/>
<path d="M275.33 102.67C275.33 107.822 271.154 112.002 265.998 112.002C260.842 112.002 256.666 107.822 256.666 102.67C256.666 97.5137 260.842 93.334 265.998 93.334C271.154 93.334 275.33 97.5137 275.33 102.67" fill="#381C5F"/>
<path d="M191.33 74.6679C191.33 79.8202 187.154 83.9999 181.998 83.9999C176.842 83.9999 172.666 79.8202 172.666 74.6679C172.666 69.5117 176.842 65.332 181.998 65.332C187.154 65.332 191.33 69.5117 191.33 74.6679Z" fill="#381C5F"/>
<path d="M163.33 46.6679C163.33 51.8202 159.154 55.9999 153.998 55.9999C148.842 55.9999 144.666 51.8202 144.666 46.6679C144.666 41.5117 148.842 37.332 153.998 37.332C159.154 37.332 163.33 41.5117 163.33 46.6679Z" fill="#381C5F"/>
<path d="M219.33 46.6679C219.33 51.8202 215.154 55.9999 209.998 55.9999C204.842 55.9999 200.666 51.8202 200.666 46.6679C200.666 41.5117 204.842 37.332 209.998 37.332C215.154 37.332 219.33 41.5117 219.33 46.6679Z" fill="#381C5F"/>
<path d="M219.33 102.67C219.33 107.822 215.154 112.002 209.998 112.002C204.842 112.002 200.666 107.822 200.666 102.67C200.666 97.5137 204.842 93.334 209.998 93.334C215.154 93.334 219.33 97.5137 219.33 102.67" fill="#381C5F"/>
<path d="M527.33 74.6679C527.33 79.8202 523.154 83.9999 517.998 83.9999C512.842 83.9999 508.666 79.8202 508.666 74.6679C508.666 69.5117 512.842 65.332 517.998 65.332C523.154 65.332 527.33 69.5117 527.33 74.6679Z" fill="#381C5F"/>
<path d="M555.33 46.6679C555.33 51.8202 551.154 55.9999 545.998 55.9999C540.842 55.9999 536.666 51.8202 536.666 46.6679C536.666 41.5117 540.842 37.332 545.998 37.332C551.154 37.332 555.33 41.5117 555.33 46.6679Z" fill="#381C5F"/>
<path d="M387.33 46.6679C387.33 51.8202 383.154 55.9999 377.998 55.9999C372.842 55.9999 368.666 51.8202 368.666 46.6679C368.666 41.5117 372.842 37.332 377.998 37.332C383.154 37.332 387.33 41.5117 387.33 46.6679Z" fill="#381C5F"/>
<path d="M387.33 102.67C387.33 107.822 383.154 112.002 377.998 112.002C372.842 112.002 368.666 107.822 368.666 102.67C368.666 97.5137 372.842 93.334 377.998 93.334C383.154 93.334 387.33 97.5137 387.33 102.67" fill="#381C5F"/>
<path d="M415.33 74.6679C415.33 79.8202 411.154 83.9999 405.998 83.9999C400.842 83.9999 396.666 79.8202 396.666 74.6679C396.666 69.5117 400.842 65.332 405.998 65.332C411.154 65.332 415.33 69.5117 415.33 74.6679Z" fill="#381C5F"/>
<path d="M471.33 74.6679C471.33 79.8202 467.154 83.9999 461.998 83.9999C456.842 83.9999 452.666 79.8202 452.666 74.6679C452.666 69.5117 456.842 65.332 461.998 65.332C467.154 65.332 471.33 69.5117 471.33 74.6679Z" fill="#381C5F"/>
<path d="M303.33 130.67C303.33 135.822 299.154 140.002 293.998 140.002C288.842 140.002 284.666 135.822 284.666 130.67C284.666 125.514 288.842 121.334 293.998 121.334C299.154 121.334 303.33 125.514 303.33 130.67Z" fill="#381C5F"/>
<path d="M359.33 130.67C359.33 135.822 355.154 140.002 349.998 140.002C344.842 140.002 340.666 135.822 340.666 130.67C340.666 125.514 344.842 121.334 349.998 121.334C355.154 121.334 359.33 125.514 359.33 130.67Z" fill="#381C5F"/>
<path d="M247.33 130.67C247.33 135.822 243.154 140.002 237.998 140.002C232.842 140.002 228.666 135.822 228.666 130.67C228.666 125.514 232.842 121.334 237.998 121.334C243.154 121.334 247.33 125.514 247.33 130.67Z" fill="#381C5F"/>
<path d="M191.33 130.67C191.33 135.822 187.154 140.002 181.998 140.002C176.842 140.002 172.666 135.822 172.666 130.67C172.666 125.514 176.842 121.334 181.998 121.334C187.154 121.334 191.33 125.514 191.33 130.67Z" fill="#381C5F"/>
<path d="M527.33 130.67C527.33 135.822 523.154 140.002 517.998 140.002C512.842 140.002 508.666 135.822 508.666 130.67C508.666 125.514 512.842 121.334 517.998 121.334C523.154 121.334 527.33 125.514 527.33 130.67Z" fill="#381C5F"/>
<path d="M415.33 130.67C415.33 135.822 411.154 140.002 405.998 140.002C400.842 140.002 396.666 135.822 396.666 130.67C396.666 125.514 400.842 121.334 405.998 121.334C411.154 121.334 415.33 125.514 415.33 130.67Z" fill="#381C5F"/>
<path d="M471.33 130.67C471.33 135.822 467.154 140.002 461.998 140.002C456.842 140.002 452.666 135.822 452.666 130.67C452.666 125.514 456.842 121.334 461.998 121.334C467.154 121.334 471.33 125.514 471.33 130.67Z" fill="#381C5F"/>
<path d="M443.33 46.6679C443.33 51.8202 439.154 55.9999 433.998 55.9999C428.842 55.9999 424.666 51.8202 424.666 46.6679C424.666 41.5117 428.842 37.332 433.998 37.332C439.154 37.332 443.33 41.5117 443.33 46.6679Z" fill="#381C5F"/>
<path d="M499.33 46.6679C499.33 51.8202 495.154 55.9999 489.998 55.9999C484.842 55.9999 480.666 51.8202 480.666 46.6679C480.666 41.5117 484.842 37.332 489.998 37.332C495.154 37.332 499.33 41.5117 499.33 46.6679Z" fill="#381C5F"/>
<path d="M443.33 102.67C443.33 107.822 439.154 112.002 433.998 112.002C428.842 112.002 424.666 107.822 424.666 102.67C424.666 97.5137 428.842 93.334 433.998 93.334C439.154 93.334 443.33 97.5137 443.33 102.67" fill="#381C5F"/>
<path d="M499.33 102.67C499.33 107.822 495.154 112.002 489.998 112.002C484.842 112.002 480.666 107.822 480.666 102.67C480.666 97.5137 484.842 93.334 489.998 93.334C495.154 93.334 499.33 97.5137 499.33 102.67" fill="#381C5F"/>
</svg>
